<svg width="401" height="344" viewBox="0 0 401 344" fill="none" xmlns="http://www.w3.org/2000/svg">
<path d="M356.881 146.517C346.572 142.615 334.379 147.57 324.667 158.209C308.856 87.048 259.228 20.348 200.443 20.348C141.703 20.348 92.1061 86.947 76.2561 158.047C66.5691 147.521 54.4491 142.635 44.1921 146.517C28.5141 152.451 18.8261 178.248 27.8641 202.125C34.8601 220.61 56.5781 231.665 73.3061 232.967C84.8281 299.823 137.363 334.909 200.443 334.909C263.517 334.909 316.049 299.829 327.577 232.984C344.33 231.751 366.186 220.679 373.209 202.125C382.246 178.248 372.558 152.451 356.881 146.517V146.517Z" fill="#FFCBBE"/>
<path d="M356.881 146.517C346.572 142.615 334.38 147.569 324.669 158.207C311.879 100.648 276.965 46.008 232.973 27.225C267.676 63.615 290.527 122.465 290.527 176.059C290.527 261.432 232.55 306.524 161.032 306.524C139.797 306.524 119.756 302.549 102.072 294.724C125.822 321.243 161.079 334.909 200.443 334.909C263.517 334.909 316.049 299.829 327.577 232.984C344.33 231.751 366.186 220.679 373.209 202.125C382.246 178.248 372.558 152.451 356.881 146.517V146.517Z" fill="#FDAD9D"/>
<path d="M143.971 183.382C152.853 183.382 160.054 176.181 160.054 167.299C160.054 158.417 152.853 151.216 143.971 151.216C135.089 151.216 127.888 158.417 127.888 167.299C127.888 176.181 135.089 183.382 143.971 183.382Z" fill="#0A81F9"/>
<path d="M257.103 183.382C265.985 183.382 273.186 176.181 273.186 167.299C273.186 158.417 265.985 151.216 257.103 151.216C248.221 151.216 241.02 158.417 241.02 167.299C241.02 176.181 248.221 183.382 257.103 183.382Z" fill="#0A81F9"/>
<path d="M200.537 235.999C186.272 235.999 172.968 228.943 164.947 217.125C162.549 213.591 163.469 208.782 167.004 206.384C170.538 203.987 175.346 204.906 177.745 208.441C182.883 216.013 191.404 220.534 200.537 220.534C209.67 220.534 218.19 216.013 223.328 208.441C225.726 204.908 230.536 203.987 234.069 206.384C237.603 208.782 238.524 213.592 236.126 217.125C228.105 228.943 214.801 235.999 200.537 235.999Z" fill="#F26A35"/>
<path d="M161.112 152.925H124.527C120.256 152.925 116.794 149.463 116.794 145.192C116.794 140.921 120.256 137.459 124.527 137.459H161.112C165.383 137.459 168.845 140.921 168.845 145.192C168.845 149.462 165.383 152.925 161.112 152.925Z" fill="#A698A6"/>
<path d="M275.395 152.925H238.81C234.539 152.925 231.077 149.463 231.077 145.192C231.077 140.921 234.539 137.459 238.81 137.459H275.395C279.666 137.459 283.128 140.921 283.128 145.192C283.128 149.462 279.666 152.925 275.395 152.925Z" fill="#A698A6"/>
<path d="M357.315 106.162C357.149 106.151 356.984 106.142 356.819 106.133C347.202 105.631 339.549 97.879 339.444 88.249C339.422 86.207 339.311 84.145 339.106 82.067C335.769 48.224 307.92 21.547 273.968 19.613C268.081 19.278 262.346 19.685 256.839 20.735C239.423 13.81 220.432 10 200.55 10C180.665 10 161.674 13.814 144.257 20.739C138.748 19.686 133.01 19.277 127.121 19.612C93.1611 21.54 65.3041 48.22 61.9671 82.07C61.7621 84.148 61.6511 86.209 61.6291 88.25C61.5251 97.88 53.8721 105.632 44.2541 106.134C44.0891 106.143 43.9231 106.152 43.7581 106.163C22.6251 107.514 5.77111 125.168 5.35011 146.341C4.88511 169.749 23.9941 188.81 47.4201 188.266C60.8601 187.954 72.8431 181.034 80.1371 170.619C85.2611 163.303 87.4131 154.382 87.1121 145.455C87.0851 144.661 87.0721 143.864 87.0721 143.064C87.0721 103.57 119.088 71.554 158.582 71.554C173.261 71.554 186.899 75.989 198.251 83.577C198.251 83.577 198.326 83.629 198.449 83.714C199.704 84.584 201.371 84.574 202.614 83.687C214.003 76.033 227.742 71.555 242.492 71.555C281.986 71.555 314.002 103.571 314.002 143.065C314.002 143.865 313.988 144.662 313.962 145.456C313.661 154.383 315.813 163.304 320.937 170.62C328.231 181.035 340.215 187.954 353.654 188.267C377.08 188.811 396.189 169.75 395.724 146.342C395.302 125.168 378.449 107.514 357.315 106.162V106.162Z" fill="#E0DDE2"/>
</svg>
