<svg width="144" height="122" viewBox="0 0 144 122" fill="none" xmlns="http://www.w3.org/2000/svg">
<path d="M128.157 51.9624C124.455 50.5786 120.076 52.3359 116.589 56.109C110.911 30.8717 93.0893 7.21643 71.9795 7.21643C50.8858 7.21643 33.0754 30.8358 27.3836 56.0515C23.905 52.3185 19.5527 50.5857 15.8694 51.9624C10.2394 54.0669 6.7604 63.2159 10.006 71.6839C12.5182 78.2396 20.3172 82.1602 26.3243 82.622C30.4619 106.333 49.3273 118.776 71.9795 118.776C94.6295 118.776 113.494 106.335 117.634 82.628C123.65 82.1907 131.498 78.2641 134.02 71.6839C137.265 63.2159 133.786 54.0669 128.157 51.9624V51.9624Z" fill="#FFCBBE"/>
<path d="M128.157 51.9624C124.455 50.5786 120.077 52.3355 116.589 56.1083C111.996 35.6949 99.4588 16.3168 83.6611 9.6554C96.1231 22.5611 104.329 43.4324 104.329 62.4395C104.329 92.7172 83.5092 108.709 57.827 108.709C50.2014 108.709 43.0047 107.299 36.6543 104.524C45.183 113.929 57.8438 118.776 71.9795 118.776C94.6296 118.776 113.494 106.335 117.634 82.6281C123.65 82.1908 131.498 78.2641 134.02 71.6839C137.265 63.2159 133.786 54.0669 128.157 51.9624V51.9624Z" fill="#FDAD9D"/>
<path d="M51.7002 65.0366C54.8899 65.0366 57.4757 62.4829 57.4757 59.3328C57.4757 56.1826 54.8899 53.6289 51.7002 53.6289C48.5106 53.6289 45.9248 56.1826 45.9248 59.3328C45.9248 62.4829 48.5106 65.0366 51.7002 65.0366Z" fill="#0A81F9"/>
<path d="M92.3262 65.0366C95.5159 65.0366 98.1017 62.4829 98.1017 59.3328C98.1017 56.1826 95.5159 53.6289 92.3262 53.6289C89.1365 53.6289 86.5508 56.1826 86.5508 59.3328C86.5508 62.4829 89.1365 65.0366 92.3262 65.0366Z" fill="#0A81F9"/>
<path d="M72.0133 83.6973C66.8907 83.6973 62.1132 81.1948 59.2328 77.0036C58.3717 75.7502 58.7021 74.0447 59.9715 73.1943C61.2406 72.3442 62.9671 72.6701 63.8286 73.9238C65.6737 76.6092 68.7336 78.2126 72.0133 78.2126C75.293 78.2126 78.3525 76.6092 80.1976 73.9238C81.0587 72.6708 82.786 72.3442 84.0547 73.1943C85.3238 74.0447 85.6545 75.7506 84.7934 77.0036C81.913 81.1948 77.1355 83.6973 72.0133 83.6973Z" fill="#F26A35"/>
<path d="M57.8556 54.235H44.7179C43.1841 54.235 41.9409 53.0072 41.9409 51.4925C41.9409 49.9778 43.1841 48.75 44.7179 48.75H57.8556C59.3893 48.75 60.6326 49.9778 60.6326 51.4925C60.6326 53.0069 59.3893 54.235 57.8556 54.235Z" fill="#A698A6"/>
<path d="M98.8949 54.235H85.7572C84.2234 54.235 82.9802 53.0072 82.9802 51.4925C82.9802 49.9778 84.2234 48.75 85.7572 48.75H98.8949C100.429 48.75 101.672 49.9778 101.672 51.4925C101.672 53.0069 100.429 54.235 98.8949 54.235Z" fill="#A698A6"/>
<path d="M128.313 37.6505C128.253 37.6466 128.194 37.6434 128.135 37.6402C124.681 37.4622 121.933 34.7129 121.895 31.2976C121.887 30.5734 121.847 29.8421 121.774 29.1052C120.575 17.1027 110.575 7.64167 98.3825 6.95577C96.2685 6.83696 94.2091 6.98131 92.2315 7.35369C85.9773 4.89773 79.1576 3.54651 72.018 3.54651C64.8772 3.54651 58.0575 4.89915 51.803 7.35511C49.8247 6.98166 47.7642 6.83661 45.6494 6.95542C33.4543 7.63918 23.4508 17.1013 22.2525 29.1062C22.1789 29.8432 22.139 30.5741 22.1311 31.298C22.0938 34.7133 19.3456 37.4625 15.8917 37.6405C15.8325 37.6437 15.7729 37.6469 15.7136 37.6508C8.12469 38.13 2.07238 44.391 1.9212 51.9C1.75421 60.2017 8.6163 66.9617 17.0286 66.7688C21.855 66.6581 26.1581 64.2039 28.7774 60.5102C30.6174 57.9156 31.3902 54.7518 31.2821 51.5858C31.2724 51.3042 31.2678 51.0215 31.2678 50.7378C31.2678 36.7312 42.7648 25.3767 56.9472 25.3767C62.2184 25.3767 67.1159 26.9496 71.1924 29.6407C71.1924 29.6407 71.2193 29.6591 71.2635 29.6893C71.7142 29.9978 72.3128 29.9943 72.7592 29.6797C76.849 26.9652 81.7827 25.3771 87.0794 25.3771C101.262 25.3771 112.759 36.7316 112.759 50.7382C112.759 51.0219 112.754 51.3045 112.744 51.5861C112.636 54.7521 113.409 57.916 115.249 60.5106C117.869 64.2043 122.172 66.6581 126.998 66.7691C135.41 66.962 142.272 60.202 142.105 51.9004C141.954 44.391 135.902 38.13 128.313 37.6505V37.6505Z" fill="#E0DDE2"/>
</svg>
